<svg xmlns="http://www.w3.org/2000/svg" viewBox="0 0 32 32">
  <defs>
    <linearGradient id="grad1" x1="0%" y1="0%" x2="100%" y2="100%">
      <stop offset="0%" style="stop-color:#3B82F6;stop-opacity:1" />
      <stop offset="100%" style="stop-color:#8B5CF6;stop-opacity:1" />
    </linearGradient>
  </defs>
  <rect width="32" height="32" rx="8" fill="url(#grad1)" />
  <path d="M8 12C8 10.8954 8.89543 10 10 10H22C23.1046 10 24 10.8954 24 12V14C24 15.1046 23.1046 16 22 16H10C8.89543 16 8 15.1046 8 14V12Z" fill="white" opacity="0.9" />
  <path d="M10 18C8.89543 18 8 18.8954 8 20V22C8 23.1046 8.89543 24 10 24H18C19.1046 24 20 23.1046 20 22V20C20 18.8954 19.1046 18 18 18H10Z" fill="white" />
  <circle cx="24" cy="21" r="3" fill="white" />
</svg>
